<svg>
    <defs>
        <g id="ae" fill="none" fill-rule="evenodd">
            <g fill-rule="nonzero">
                <path fill="#016FD0"
                    d="M0 0L30 0 30 16.163 28.515 18.478 30 20.539 30 29.94 0 29.94 0 14.704 0.928 13.639 0 12.62z"
                    transform="translate(-193 -312) translate(91 312) translate(102) translate(5 5)" />
                <path fill="#FFF"
                    d="M5.936 20.814V16.17H10.9l.532.687.55-.687H30v4.323s-.471.315-1.016.32h-9.977l-.6-.732v.732h-1.968v-1.25s-.269.175-.85.175h-.67v1.075H11.94l-.531-.702-.54.702H5.936zM0 12.671l1.121-2.584H3.06l.636 1.448v-1.448h2.41l.378 1.046.367-1.046H17.67v.526s.569-.526 1.503-.526l3.51.012.626 1.429v-1.441h2.016l.555.82v-.82h2.035v4.643H25.88l-.532-.824v.824h-2.963l-.298-.732h-.796l-.293.732h-2.01c-.804 0-1.318-.515-1.318-.515v.515h-3.03l-.6-.732v.732H2.771l-.297-.732H1.68l-.296.732H0V12.67z"
                    transform="translate(-193 -312) translate(91 312) translate(102) translate(5 5)" />
                <path fill="#016FD0"
                    d="M1.513 10.567L0 14.09h.985l.28-.705h1.622l.277.705h1.007L2.66 10.567H1.513zm.56.82l.494 1.232h-.99l.496-1.232zM4.332 14.089L4.332 10.567 5.71 10.572 6.512 12.843 7.295 10.567 8.663 10.567 8.663 14.089 7.797 14.089 7.797 11.494 6.878 14.089 6.119 14.089 5.198 11.494 5.198 14.089zM9.305 14.089L9.305 10.567 12.193 10.567 12.193 11.355 10.199 11.355 10.199 11.957 12.146 11.957 12.146 12.699 10.199 12.699 10.199 13.325 12.193 13.325 12.193 14.089zM12.674 10.567v3.522h.877v-1.25h.369l1.051 1.25h1.072l-1.154-1.297c.474-.04.962-.449.962-1.082 0-.741-.58-1.143-1.226-1.143h-1.951zm.877.788h1.002c.24 0 .415.189.415.37 0 .235-.226.372-.402.372h-1.015v-.742zM17.166 14.089L16.203 14.089 16.203 10.567 17.166 10.567zM19.193 14.09h-.195c-.94 0-1.511-.74-1.511-1.747 0-1.032.564-1.776 1.752-1.776h.975v.834h-1.01c-.483 0-.824.376-.824.95 0 .683.39.97.952.97h.232l-.371.768zM21.085 10.567l-1.513 3.522h.985l.28-.705h1.622l.278.705h1.006l-1.511-3.522h-1.147zm.56.82l.494 1.232h-.99l.496-1.232zM23.904 14.089L23.904 10.567 25.004 10.567 26.408 12.78 26.408 10.567 27.273 10.567 27.273 14.089 26.209 14.089 24.769 11.818 24.769 14.089zM6.417 20.173L6.417 16.651 9.305 16.651 9.305 17.439 7.311 17.439 7.311 18.042 9.258 18.042 9.258 18.783 7.311 18.783 7.311 19.409 9.305 19.409 9.305 20.173zM20.374 20.173L20.374 16.651 23.262 16.651 23.262 17.439 21.269 17.439 21.269 18.042 23.206 18.042 23.206 18.783 21.269 18.783 21.269 19.409 23.262 19.409 23.262 20.173zM9.338 20.173L10.725 18.434 9.305 16.651 10.404 16.651 11.25 17.753 12.098 16.651 13.155 16.651 11.754 18.412 13.143 20.173 12.044 20.173 11.223 19.089 10.422 20.173zM13.316 16.651v3.522h.903v-1.112h.927c.784 0 1.378-.416 1.378-1.225 0-.67-.466-1.185-1.264-1.185h-1.944zm.903.797h.976c.253 0 .434.155.434.405 0 .235-.18.406-.437.406h-.973v-.811zM16.845 16.651v3.522h.877v-1.25h.369l1.051 1.25h1.072l-1.154-1.297c.474-.04.962-.448.962-1.082 0-.741-.58-1.143-1.226-1.143h-1.951zm.877.788h1.002c.24 0 .415.189.415.37 0 .235-.226.372-.402.372h-1.015v-.742zM23.852 20.173v-.764h1.712c.254 0 .363-.141.363-.296 0-.148-.109-.297-.363-.297h-.773c-.673 0-1.048-.422-1.048-1.055 0-.565.343-1.11 1.343-1.11h1.666l-.36.793H24.95c-.276 0-.36.148-.36.29 0 .146.104.308.315.308h.81c.75 0 1.075.437 1.075 1.01 0 .617-.362 1.121-1.116 1.121h-1.823zM27.06 20.173v-.764h1.713c.253 0 .363-.141.363-.296 0-.148-.11-.297-.363-.297h-.774c-.673 0-1.047-.422-1.047-1.055 0-.565.343-1.11 1.342-1.11h1.667l-.36.793h-1.442c-.275 0-.36.148-.36.29 0 .146.105.308.315.308h.81c.75 0 1.076.437 1.076 1.01 0 .617-.363 1.121-1.116 1.121h-1.823z"
                    transform="translate(-193 -312) translate(91 312) translate(102) translate(5 5)" />
            </g>
        </g>
        <g id="dc" fill="none" fill-rule="evenodd">
            <g fill="#211E1F" fill-rule="nonzero">
                <path
                    d="M.62 1.135C.62.565.324.602.039.595V.432c.247.012.5.012.748.012.267 0 .628-.012 1.098-.012 1.641 0 2.535 1.097 2.535 2.22 0 .627-.367 2.206-2.612 2.206-.323 0-.621-.012-.92-.012-.284 0-.564.006-.849.012v-.164c.38-.039.565-.051.583-.483V1.135zm.622 2.974c0 .488.35.545.66.545 1.37 0 1.82-1.033 1.82-1.978C3.722 1.49 2.96.634 1.737.634c-.26 0-.38.019-.495.026v3.45zM4.642 4.693h.12c.177 0 .304 0 .304-.21V2.765c0-.28-.095-.318-.33-.444V2.22c.298-.09.654-.209.679-.228.044-.025.082-.032.114-.032.031 0 .045.038.045.09v2.434c0 .21.139.21.317.21h.107v.164c-.216 0-.438-.012-.665-.012-.229 0-.457.006-.691.012v-.164zM5.32.983c-.165 0-.31-.152-.31-.317 0-.16.152-.305.31-.305.164 0 .31.134.31.305 0 .171-.14.317-.31.317zM6.6 2.802c0-.234-.07-.297-.367-.418v-.12c.273-.089.532-.171.837-.305.019 0 .037.013.037.064v.412c.362-.26.673-.476 1.098-.476.539 0 .729.393.729.888v1.636c0 .21.14.21.317.21h.114v.164c-.222 0-.444-.012-.672-.012-.228 0-.457.006-.685.012v-.164h.114c.178 0 .304 0 .304-.21V2.84c0-.362-.22-.54-.583-.54-.202 0-.526.166-.736.305v1.877c0 .21.14.21.318.21h.114v.164c-.222 0-.444-.012-.672-.012-.228 0-.457.006-.685.012v-.164h.114c.178 0 .304 0 .304-.21v-1.68zM9.847 3.107c-.013.057-.013.152 0 .368.037.602.425 1.097.932 1.097.349 0 .622-.19.856-.425l.089.09c-.292.386-.653.715-1.173.715-1.008 0-1.211-.976-1.211-1.382 0-1.243.837-1.61 1.28-1.61.514 0 1.066.322 1.072.995 0 .038 0 .076-.006.114l-.058.038h-1.78zm1.123-.203c.158 0 .176-.082.176-.158 0-.324-.196-.584-.551-.584-.387 0-.653.285-.729.742h1.104zM11.838 4.693h.171c.177 0 .304 0 .304-.21V2.7c0-.196-.234-.234-.33-.285V2.32c.463-.197.717-.362.775-.362.037 0 .056.02.056.083v.57h.013c.158-.247.425-.653.812-.653.158 0 .36.108.36.336 0 .172-.12.324-.297.324-.197 0-.197-.152-.419-.152-.108 0-.462.145-.462.526v1.49c0 .21.126.21.304.21h.355v.164c-.35-.006-.614-.012-.888-.012-.26 0-.526.006-.754.012v-.164zM14.279 3.976c.083.418.336.774.799.774.373 0 .513-.229.513-.45 0-.749-1.382-.508-1.382-1.529 0-.355.286-.812.983-.812.202 0 .475.058.722.185l.045.646h-.146c-.063-.4-.285-.628-.691-.628-.254 0-.495.146-.495.419 0 .742 1.471.513 1.471 1.509 0 .418-.336.862-1.09.862-.254 0-.552-.088-.774-.215l-.07-.73.115-.031zM21.823 1.579h-.158c-.12-.742-.647-1.04-1.356-1.04-.73 0-1.789.488-1.789 2.01 0 1.281.914 2.2 1.89 2.2.627 0 1.148-.43 1.274-1.097l.146.038-.146.926c-.266.165-.982.336-1.401.336-1.483 0-2.422-.957-2.422-2.384 0-1.3 1.16-2.233 2.403-2.233.514 0 1.008.166 1.496.337l.063.907zM22.052 4.693h.12c.178 0 .305 0 .305-.21V.95c0-.412-.095-.425-.336-.495V.355c.254-.082.52-.197.653-.273.07-.038.12-.07.139-.07.039 0 .051.039.051.09v4.38c0 .21.14.21.317.21h.107v.165c-.214 0-.436-.012-.665-.012-.228 0-.456.006-.69.012v-.164zM26.123 4.508c0 .115.07.121.177.121.076 0 .171-.006.254-.006v.133c-.273.025-.793.159-.913.196l-.032-.019V4.42c-.38.31-.672.532-1.123.532-.342 0-.697-.221-.697-.754V2.574c0-.164-.025-.323-.38-.355V2.1c.229-.006.735-.045.818-.045.07 0 .07.045.07.184v1.636c0 .19 0 .736.551.736.216 0 .501-.165.767-.386V2.517c0-.126-.304-.196-.532-.26v-.114c.57-.038.926-.089.989-.089.051 0 .051.045.051.115v2.34zM27.385 2.416c.253-.216.595-.457.944-.457.736 0 1.18.641 1.18 1.332 0 .83-.609 1.661-1.516 1.661-.47 0-.716-.152-.881-.221l-.19.145-.133-.07c.056-.373.089-.741.089-1.128V.951c0-.412-.096-.425-.337-.495V.355c.254-.082.52-.197.653-.273.07-.038.12-.07.14-.07.038 0 .05.039.05.09v2.314zm0 1.724c0 .242.228.648.653.648.678 0 .963-.666.963-1.231 0-.685-.52-1.255-1.014-1.255-.235 0-.431.152-.602.298v1.54zM.031 8.544H.08c.124 0 .255-.016.255-.196V6.54c0-.18-.131-.197-.255-.197H.03V6.24c.135 0 .342.013.511.013.173 0 .38-.013.541-.013v.103h-.048c-.124 0-.255.017-.255.197v1.808c0 .18.131.196.255.196h.048v.104c-.165 0-.372-.013-.545-.013-.169 0-.372.013-.507.013v-.104z"
                    transform="translate(-244 -312) translate(91 312) translate(153) translate(5 27)" />
                <path
                    d="M1.084 8.663c-.167 0-.374-.014-.546-.014-.168 0-.371.014-.507.014H.016v-.134H.08c.125-.002.239-.012.24-.181V6.54c-.001-.168-.115-.18-.24-.182H.016v-.134h.015c.136 0 .343.014.511.014.172 0 .378-.014.542-.014h.015v.134h-.064c-.125.002-.24.014-.24.182v1.808c0 .169.115.179.24.181H1.1v.134h-.015zm-.015-.03V8.56h-.034c-.123 0-.27-.021-.27-.212V6.54c0-.19.147-.212.27-.212h.034v-.073c-.16 0-.36.013-.527.013-.164 0-.362-.012-.496-.013v.073H.08c.123 0 .27.022.27.212v1.808c0 .19-.147.212-.27.212H.046v.073c.134 0 .329-.013.492-.013.168 0 .368.013.53.013zM3.454 7.968l.007-.007V6.668c0-.284-.197-.325-.3-.325h-.077V6.24c.163 0 .321.013.483.013.142 0 .284-.013.425-.013v.103H3.94c-.145 0-.307.028-.307.438v1.57c0 .121.003.242.02.349h-.13L1.745 6.72v1.42c0 .301.058.404.324.404h.058v.104c-.148 0-.296-.013-.444-.013-.155 0-.314.013-.47.013v-.104h.049c.238 0 .31-.161.31-.437V6.653c0-.193-.16-.31-.314-.31h-.045V6.24c.132 0 .266.013.397.013.103 0 .204-.013.307-.013l1.536 1.728z"
                    transform="translate(-244 -312) translate(91 312) translate(153) translate(5 27)" />
                <path
                    d="M3.653 8.715l-.142-.005-1.75-1.952v1.383c.003.3.049.385.309.388h.074v.134h-.016c-.149 0-.297-.014-.445-.014-.154 0-.312.014-.469.014h-.015v-.134h.064c.228 0 .293-.147.295-.422V6.654c0-.184-.15-.296-.299-.296H1.2v-.133h.015c.132 0 .267.013.396.013.103 0 .203-.013.32-.008l1.516 1.707V6.668c-.002-.275-.185-.308-.286-.31H3.07v-.133h.015c.163 0 .322.013.483.013.14 0 .282-.013.425-.013h.015v.133H3.94c-.142.004-.288.016-.292.423v1.57c0 .121.003.242.02.346l.003.018h-.018zm-.13-.03h.113c-.015-.104-.018-.219-.018-.334v-1.57c0-.414.174-.453.322-.453h.037v-.073c-.136 0-.273.013-.41.013-.158 0-.311-.012-.467-.013v.073h.06c.106 0 .316.047.316.34L3.47 7.972l-.007.007-.012.01-1.534-1.734c-.102 0-.202.013-.307.013-.127 0-.256-.012-.382-.013v.073h.03c.162 0 .329.124.329.326v1.453c0 .276-.077.452-.325.453h-.034v.073c.15-.001.304-.013.454-.013.145 0 .288.012.43.013V8.56H2.07c-.272 0-.34-.12-.34-.42V6.68l1.792 2.004zm-.049-.663l.046-.042-.046.042zm.014-.017V8l-.012-.01.012.015zM4.508 6.412c-.259 0-.269.062-.32.314h-.104c.014-.097.031-.193.042-.293.013-.097.02-.193.02-.293h.083c.028.103.114.1.208.1h1.78c.093 0 .179-.004.186-.107l.082.013c-.013.094-.027.187-.038.28-.006.093-.006.186-.006.28l-.104.038c-.007-.128-.024-.332-.255-.332h-.566v1.836c0 .266.121.296.286.296h.066v.104c-.135 0-.376-.013-.562-.013-.207 0-.45.013-.584.013v-.104h.066c.19 0 .286-.017.286-.289V6.412h-.566z"
                    transform="translate(-244 -312) translate(91 312) translate(153) translate(5 27)" />
                <path
                    d="M5.868 8.663c-.135 0-.377-.014-.562-.014-.207 0-.448.014-.584.014h-.014v-.134h.08c.19-.004.267-.006.271-.274V6.427h-.55v-.03h.58v1.858c0 .277-.111.305-.3.305h-.052v.073c.136 0 .369-.013.569-.013.18 0 .41.012.547.013V8.56h-.05c-.168 0-.302-.041-.302-.312V6.397h.581c.232 0 .262.197.27.325l.074-.027c0-.09 0-.18.007-.271.01-.089.022-.177.035-.265l-.052-.009c-.016.1-.113.106-.2.105H4.419c-.081 0-.17-.004-.201-.1H4.16c0 .095-.007.188-.02.28-.01.094-.026.185-.04.277h.075c.045-.24.075-.319.332-.315v.03c-.255.005-.25.048-.306.303L4.2 6.74h-.133l.002-.018c.014-.096.031-.192.042-.293.014-.096.02-.191.02-.29v-.015h.11l.002.01c.024.087.088.088.176.09h1.797c.096-.002.166-.003.172-.094l.001-.016.016.003.097.016-.002.015c-.014.092-.028.185-.038.278-.006.092-.006.185-.006.278v.011l-.01.004-.122.044-.001-.02c-.01-.13-.023-.317-.24-.317H5.53v1.82c.003.261.107.28.271.282h.081v.134h-.015zM6.595 8.544h.049c.124 0 .255-.016.255-.196V6.54c0-.18-.131-.197-.255-.197h-.049V6.24c.21 0 .57.013.86.013.29 0 .648-.013.882-.013-.006.148-.003.376.008.527l-.104.028c-.017-.224-.058-.403-.42-.403h-.48v.903h.41c.207 0 .252-.117.273-.303h.103c-.007.135-.01.27-.01.404 0 .131.003.262.01.393l-.103.02c-.02-.206-.031-.34-.27-.34h-.413v.803c0 .224.2.224.42.224.415 0 .597-.028.7-.42l.097.023c-.045.184-.086.366-.117.55-.22 0-.618-.014-.928-.014-.31 0-.72.013-.918.013v-.104z"
                    transform="translate(-244 -312) translate(91 312) translate(153) translate(5 27)" />
                <path
                    d="M8.441 8.663c-.221 0-.618-.014-.928-.014-.31 0-.72.014-.918.014h-.014v-.134h.063c.125-.001.238-.012.24-.181V6.54c-.002-.168-.115-.18-.24-.182H6.58v-.133h.014c.21 0 .57.013.859.013.29 0 .648-.013.883-.013h.016l-.001.015c-.003.052-.003.113-.003.178 0 .12.003.25.01.349v.012l-.011.003-.121.032-.001-.018c-.02-.224-.05-.386-.406-.39h-.464l-.001.874h.396c.199-.002.234-.104.258-.29l.001-.013h.133v.015c-.008.135-.012.27-.012.404 0 .13.004.261.011.393V7.8l-.012.003-.12.024-.001-.017c-.024-.21-.026-.326-.255-.328h-.399v.789c0 .21.182.208.406.21.416-.003.582-.023.686-.41l.004-.015.014.003.11.029-.003.014c-.044.183-.085.365-.116.548l-.003.012H8.44zm-.013-.03c.03-.174.07-.349.112-.522l-.068-.018c-.103.386-.303.42-.71.418-.218 0-.435 0-.436-.24v-.818h.428c.241-.003.266.143.283.34l.074-.016c-.006-.127-.01-.255-.01-.381 0-.13.004-.26.01-.39h-.074c-.02.18-.076.307-.286.304h-.425v-.934h.494c.36-.002.419.183.434.4l.074-.02c-.006-.097-.01-.222-.01-.338 0-.059.002-.114.004-.163-.235 0-.584.013-.868.013-.283 0-.632-.012-.844-.013v.073h.034c.123 0 .27.022.27.212v1.808c0 .19-.147.211-.27.212H6.61v.073c.201 0 .6-.013.903-.013.304 0 .693.013.915.013zM9.024 6.605c0-.251-.138-.262-.245-.262h-.062V6.24c.11 0 .324.014.534.014.207 0 .373-.014.556-.014.434 0 .821.118.821.608 0 .31-.207.5-.48.608l.59.882c.097.146.166.187.335.207v.104c-.114 0-.224-.013-.338-.013-.107 0-.218.013-.324.013-.266-.348-.494-.721-.718-1.118h-.227v.739c0 .266.124.275.282.275h.062v.104c-.197 0-.396-.013-.593-.013-.166 0-.328.013-.5.013v-.104h.062c.128 0 .245-.058.245-.186V6.605zm.442.8h.168c.345 0 .531-.13.531-.538 0-.306-.196-.503-.503-.503-.104 0-.148.01-.196.014v1.028z"
                    transform="translate(-244 -312) translate(91 312) translate(153) translate(5 27)" />
                <path
                    d="M11.073 8.663c-.116 0-.225-.014-.339-.014-.105 0-.215.014-.335.008-.265-.347-.492-.718-.715-1.112H9.48v.723c.004.26.108.258.268.261h.077v.134H9.81c-.197 0-.398-.014-.593-.014-.165 0-.327.014-.5.014h-.015v-.134h.077c.124 0 .229-.054.23-.17V6.604c-.003-.245-.123-.243-.23-.247h-.077v-.134h.015c.111 0 .324.014.534.014.206 0 .372-.014.556-.014.435.001.835.122.836.622 0 .312-.206.507-.472.615l.58.868c.096.143.156.179.324.2l.013.002v.132h-.015zM9.465 7.515h.236l.004.008c.225.396.452.768.706 1.11.105 0 .216-.014.323-.014.11 0 .217.012.324.014v-.076c-.162-.02-.238-.068-.332-.211l-.6-.899.017-.007c.27-.106.47-.29.47-.594 0-.478-.372-.59-.806-.591-.182 0-.348.013-.556.013-.202 0-.407-.012-.52-.013v.073h.048c.107 0 .26.018.26.277v1.753c0 .139-.13.202-.26.202H8.73v.073c.166 0 .324-.014.486-.014.193 0 .387.014.578.014V8.56h-.047c-.158 0-.298-.02-.298-.292v-.753h.015zm0-.095H9.45V6.364l.013-.001c.048-.004.094-.014.199-.014.314 0 .518.205.519.52-.001.411-.199.551-.547.551h-.169zm.17-.03c.34-.002.513-.12.516-.522-.002-.301-.189-.488-.49-.49-.093 0-.137.01-.18.013v1h.153zM13.415 7.968l.007-.007V6.668c0-.284-.197-.325-.3-.325h-.076V6.24c.162 0 .32.013.483.013.142 0 .283-.013.425-.013v.103h-.052c-.145 0-.307.028-.307.438v1.57c0 .121.003.242.02.349h-.13l-1.777-1.98v1.42c0 .301.058.404.324.404h.059v.104c-.149 0-.297-.013-.445-.013-.156 0-.315.013-.47.013v-.104h.048c.239 0 .311-.161.311-.437V6.653c0-.193-.159-.31-.314-.31h-.045V6.24c.131 0 .266.013.397.013.103 0 .203-.013.307-.013l1.535 1.728z"
                    transform="translate(-244 -312) translate(91 312) translate(153) translate(5 27)" />
                <path
                    d="M13.615 8.715l-.142-.005-1.75-1.952v1.383c.003.3.049.385.309.388h.073v.134h-.015c-.15 0-.297-.014-.445-.014-.154 0-.313.014-.469.014h-.015v-.134h.063c.228 0 .293-.147.295-.423V6.653c0-.183-.15-.295-.298-.295h-.06v-.134h.015c.132 0 .267.014.397.014.101 0 .201-.014.317-.009l1.517 1.708v-1.27c-.001-.274-.185-.308-.285-.31h-.091v-.133h.015c.163 0 .322.014.483.014.14 0 .282-.014.424-.014h.015v.134h-.066c-.142.004-.29.016-.293.423v1.57c0 .121.003.24.02.347l.003.017h-.017zm-.13-.03h.113c-.016-.104-.019-.219-.019-.334v-1.57c0-.414.175-.452.323-.453h.036v-.073c-.135 0-.272.013-.41.013-.157 0-.311-.012-.468-.013v.073h.062c.106 0 .315.047.315.34l-.005 1.304-.006.007-.01.011-1.536-1.735c-.103 0-.203.013-.307.013-.128 0-.257-.012-.382-.013v.073h.03c.162.001.329.123.329.325v1.453c0 .277-.078.453-.326.454h-.033v.073c.149 0 .303-.013.454-.013.145 0 .288.012.43.013V8.56h-.043c-.272 0-.34-.12-.34-.42V6.68l1.792 2.004zm-.048-.663l.044-.041-.044.04zm.012-.016V8l-.011-.011.01.016zM14.509 8.155c-.035.117-.077.207-.077.269 0 .104.145.12.259.12h.038v.104c-.138-.007-.279-.013-.418-.013-.124 0-.248.006-.372.013v-.104h.02c.135 0 .25-.079.3-.224l.553-1.583c.045-.128.107-.3.128-.429.11-.037.248-.106.313-.148.011-.003.017-.007.028-.007.01 0 .017 0 .025.01l.03.087.635 1.805c.042.12.083.248.127.352.042.096.115.137.229.137h.02v.104c-.155-.007-.31-.013-.476-.013-.169 0-.342.006-.518.013v-.104h.039c.079 0 .214-.013.214-.1 0-.044-.032-.137-.07-.248l-.134-.4h-.783l-.11.359zm.503-1.529h-.007l-.32.977h.644l-.317-.977z"
                    transform="translate(-244 -312) translate(91 312) translate(153) translate(5 27)" />
                <path
                    d="M16.346 8.663c-.155-.007-.31-.014-.475-.014-.169 0-.34.007-.517.014h-.016V8.53h.053c.08 0 .199-.018.199-.084.001-.04-.03-.134-.068-.244l-.132-.39h-.76l-.108.348c-.035.118-.076.209-.076.265.001.084.13.105.245.105h.053v.135l-.016-.001c-.138-.007-.279-.014-.416-.014-.124 0-.248.007-.372.014h-.016V8.53h.035c.13 0 .236-.073.286-.214l.552-1.583c.046-.128.108-.3.138-.438.108-.037.246-.106.313-.148.01-.003.02-.008.033-.008.009 0 .027.002.038.02.01.029.02.06.031.087l.636 1.805c.04.12.082.248.127.35.04.092.103.129.214.129h.035v.135l-.016-.001zm-.978-.03c.171-.007.339-.014.503-.014.16 0 .31.007.46.013V8.56h-.004c-.118 0-.2-.046-.242-.147-.045-.105-.087-.233-.128-.354l-.635-1.804c-.01-.028-.02-.059-.03-.083-.002-.004-.002-.004-.005-.004h-.006c-.007 0-.011.002-.02.005-.066.043-.205.11-.307.138-.021.13-.083.303-.128.43l-.553 1.584c-.052.15-.173.235-.313.235h-.006v.072c.118-.006.238-.013.358-.013.133 0 .27.007.4.013V8.56h-.021c-.112-.001-.27-.014-.274-.136 0-.069.043-.157.077-.273l.015.004-.015-.005.113-.369h.805l.138.41c.039.11.07.203.07.254-.005.106-.15.113-.229.115h-.023v.072zm-.705-1.016l.33-1.006h.019v.015h-.004.004v-.015h.01l.328 1.006h-.687zm.042-.03h.603l-.3-.924-.303.925zm.318-.914l.033-.011-.033.01zM16.499 6.412c-.259 0-.27.062-.321.314h-.104c.014-.097.031-.193.042-.293.014-.097.02-.193.02-.293h.083c.028.103.115.1.207.1h1.78c.093 0 .18-.004.187-.107l.082.013c-.013.094-.027.187-.037.28-.008.093-.008.186-.008.28l-.103.038c-.006-.128-.024-.332-.255-.332h-.566v1.836c0 .266.121.296.286.296h.066v.104c-.134 0-.376-.013-.562-.013-.207 0-.449.013-.583.013v-.104h.065c.19 0 .287-.017.287-.289V6.412h-.566z"
                    transform="translate(-244 -312) translate(91 312) translate(153) translate(5 27)" />
                <path
                    d="M17.858 8.663c-.135 0-.377-.014-.562-.014-.206 0-.448.014-.583.014h-.016v-.134h.081c.19-.004.267-.006.271-.274V6.427h-.55v-.03h.58v1.858c0 .277-.111.304-.301.305h-.05v.073c.136-.001.368-.013.568-.013.18 0 .41.012.547.013V8.56h-.051c-.166 0-.3-.04-.3-.312V6.397h.58c.232 0 .262.197.269.325l.075-.027c0-.09 0-.18.007-.27.01-.09.022-.178.035-.266l-.052-.009c-.016.1-.113.106-.2.105H16.41c-.082 0-.17-.004-.201-.101h-.057c0 .096-.007.189-.02.28-.01.095-.027.187-.04.277h.074c.046-.24.076-.318.334-.314v.03c-.256.004-.25.048-.307.303l-.002.011h-.133l.002-.017c.014-.097.031-.193.041-.293.015-.097.021-.192.021-.291v-.015h.109l.003.01c.024.087.087.088.176.09h1.797c.096-.002.166-.003.172-.093v-.017l.017.003.098.016-.003.015c-.014.092-.027.185-.038.278-.007.092-.007.185-.007.278v.011l-.01.004-.122.044v-.02c-.01-.13-.023-.317-.24-.317h-.552v1.82c.004.261.107.28.27.282h.082v.134h-.015zM18.603 8.544h.048c.125 0 .255-.016.255-.196V6.54c0-.18-.13-.197-.255-.197h-.048V6.24c.134 0 .341.013.51.013.173 0 .38-.013.542-.013v.103h-.048c-.124 0-.256.017-.256.197v1.808c0 .18.132.196.256.196h.048v.104c-.166 0-.373-.013-.545-.013-.17 0-.373.013-.507.013v-.104z"
                    transform="translate(-244 -312) translate(91 312) translate(153) translate(5 27)" />
                <path
                    d="M19.655 8.663c-.167 0-.373-.014-.545-.014-.169 0-.373.014-.507.014h-.015v-.134h.063c.125-.001.239-.012.24-.181V6.54c-.001-.168-.115-.18-.24-.182h-.063v-.133h.015c.134 0 .342.013.51.013.172 0 .379-.013.542-.013h.015v.133h-.063c-.126.002-.24.014-.241.182v1.808c.002.169.115.18.24.181h.064v.134h-.015zm-.015-.03V8.56h-.033c-.124 0-.27-.022-.27-.212V6.54c0-.19.146-.212.27-.212h.033v-.073c-.16 0-.359.013-.527.013-.164 0-.361-.012-.495-.013v.073h.033c.123 0 .27.022.27.212v1.808c0 .19-.147.212-.27.212h-.033v.073c.133-.002.328-.013.492-.013.167 0 .367.012.53.013zM21.03 6.188c.736 0 1.322.456 1.322 1.19 0 .795-.569 1.322-1.303 1.322-.732 0-1.29-.497-1.29-1.239 0-.717.554-1.273 1.272-1.273zm.053 2.36c.67 0 .786-.59.786-1.093 0-.505-.272-1.115-.845-1.115-.604 0-.783.538-.783 1 0 .618.283 1.208.842 1.208z"
                    transform="translate(-244 -312) translate(91 312) translate(153) translate(5 27)" />
                <path
                    d="M19.743 7.461c.001-.726.563-1.287 1.288-1.288v.03c-.71 0-1.258.548-1.259 1.258.002.734.552 1.223 1.277 1.223.727 0 1.288-.52 1.29-1.306-.002-.725-.579-1.174-1.308-1.175v-.03c.74 0 1.335.461 1.336 1.205 0 .802-.577 1.335-1.318 1.337-.738-.002-1.305-.504-1.306-1.254zm.483-.121c.001-.464.182-1.016.798-1.016.586.002.86.624.86 1.13 0 .504-.12 1.108-.8 1.108V8.533c.655 0 .769-.575.77-1.078 0-.5-.269-1.1-.83-1.1-.592 0-.767.525-.768.985 0 .615.28 1.192.827 1.193V8.562c-.573 0-.856-.6-.857-1.222zM24.677 7.968l.007-.007V6.668c0-.284-.197-.325-.3-.325h-.075V6.24c.162 0 .32.013.482.013.142 0 .283-.013.425-.013v.103h-.052c-.145 0-.307.028-.307.438v1.57c0 .121.003.242.02.349h-.13L22.97 6.72v1.42c0 .301.058.404.323.404h.06v.104c-.149 0-.297-.013-.445-.013-.156 0-.315.013-.47.013v-.104h.049c.238 0 .31-.161.31-.437V6.653c0-.193-.158-.31-.314-.31h-.045V6.24c.131 0 .266.013.397.013.103 0 .203-.013.307-.013l1.535 1.728z"
                    transform="translate(-244 -312) translate(91 312) translate(153) translate(5 27)" />
                <path
                    d="M24.878 8.715l-.143-.005-1.75-1.952v1.383c.003.3.049.385.308.388h.075v.134h-.015c-.15 0-.298-.014-.445-.014-.155 0-.314.014-.47.014h-.015v-.134h.064c.227 0 .292-.147.295-.422V6.653c0-.183-.15-.295-.3-.295h-.059v-.133h.015c.132 0 .266.013.397.013.102 0 .202-.013.318-.008l1.516 1.707V6.668c0-.275-.185-.308-.286-.31h-.09v-.133h.015c.163 0 .322.013.482.013.142 0 .283-.013.426-.013h.015v.133h-.067c-.142.004-.29.017-.292.423v1.57c0 .121.003.241.02.347l.002.017h-.016zm-.131-.03h.113c-.015-.104-.018-.219-.018-.334v-1.57c0-.414.174-.452.322-.453h.037v-.073c-.136 0-.273.013-.41.013-.157 0-.312-.012-.468-.013v.073h.06c.107 0 .316.048.316.34l-.004 1.304-.007.007-.01.011-1.536-1.735c-.102 0-.203.013-.307.013-.127 0-.257-.012-.382-.013v.073h.03c.162.001.329.123.329.325v1.454c0 .276-.077.452-.325.453h-.034v.073c.15 0 .303-.013.455-.013.143 0 .286.012.43.013V8.56h-.045c-.27 0-.338-.12-.338-.42V6.68l1.792 2.004zm-.05-.663l.047-.041-.046.04zm.015-.016V8L24.7 7.99l.012.016zM25.77 8.155c-.034.117-.075.207-.075.269 0 .104.145.12.258.12h.038v.104c-.138-.007-.28-.013-.417-.013-.125 0-.249.006-.372.013v-.104h.02c.135 0 .249-.079.3-.224l.552-1.583c.045-.128.107-.3.128-.429.11-.037.248-.106.314-.148.01-.003.017-.007.027-.007.01 0 .017 0 .024.01.01.028.021.06.032.087l.634 1.805c.041.12.083.248.128.352.041.096.114.137.228.137h.02v.104c-.155-.007-.31-.013-.476-.013-.169 0-.341.006-.517.013v-.104h.038c.079 0 .214-.013.214-.1 0-.044-.031-.137-.07-.248l-.134-.4h-.783l-.11.359zm.504-1.529h-.006l-.322.977h.646l-.318-.977z"
                    transform="translate(-244 -312) translate(91 312) translate(153) translate(5 27)" />
                <path
                    d="M27.608 8.663c-.155-.006-.31-.014-.475-.014-.168 0-.34.008-.517.014h-.015V8.53h.052c.08 0 .2-.018.2-.084 0-.04-.03-.134-.07-.244l-.13-.39h-.762l-.107.348c-.034.118-.075.209-.074.265 0 .084.129.105.243.105h.053v.135l-.016-.001c-.138-.006-.279-.014-.416-.014-.124 0-.248.008-.372.014h-.015V8.53h.035c.128 0 .236-.074.286-.214l.552-1.583c.044-.128.106-.3.137-.437.108-.038.247-.107.314-.15.009-.002.018-.006.032-.006.01-.001.027.001.038.02.01.027.02.058.032.086l.634 1.805c.042.12.083.248.128.351.04.091.103.127.213.128h.036v.135l-.016-.001zm-.978-.03c.171-.007.339-.014.503-.014.16 0 .311.007.461.013V8.56h-.006c-.117 0-.198-.046-.241-.147-.046-.105-.087-.233-.128-.353l-.635-1.805-.029-.083c-.003-.004-.003-.004-.005-.004h-.007c-.007 0-.01.003-.02.005-.066.042-.205.111-.307.138-.021.13-.084.302-.128.43l-.553 1.584c-.052.15-.173.235-.314.235h-.005v.072c.119-.006.238-.013.358-.013.133 0 .27.007.402.013V8.56h-.023c-.112-.001-.27-.014-.274-.136 0-.069.044-.157.077-.274l.014.005-.014-.005.114-.369h.804l.138.41c.039.111.07.203.07.253-.005.106-.15.114-.229.116h-.023v.073zm-.704-1.016l.33-1.006h.018v.015h-.003.003v-.015h.011l.326 1.006h-.685zm.041-.03h.603l-.3-.924-.303.925zm.32-.914l.029-.011-.029.01zM28.479 8.31c0 .138.096.18.206.193.142.01.297.01.456-.007.145-.017.27-.1.33-.186.056-.076.087-.173.108-.249h.1c-.038.197-.086.39-.128.587-.303 0-.607-.013-.91-.013-.304 0-.607.013-.911.013v-.104h.047c.125 0 .26-.016.26-.23V6.54c0-.18-.135-.197-.26-.197h-.047V6.24c.182 0 .362.013.544.013.177 0 .35-.013.525-.013v.103h-.087c-.13 0-.233.004-.233.186V8.31z"
                    transform="translate(-244 -312) translate(91 312) translate(153) translate(5 27)" />
                <path
                    d="M29.551 8.663c-.304 0-.608-.014-.91-.014-.304 0-.608.014-.912.014h-.014v-.134h.062c.125-.002.244-.011.245-.216V6.54c-.001-.168-.119-.18-.245-.182h-.062v-.133h.014c.184 0 .363.013.546.013.175 0 .347-.013.524-.013h.014v.133H28.713c-.134.004-.217-.002-.22.171V8.31c.001.129.085.163.193.178.06.005.125.007.191.007.085 0 .173-.004.262-.013.14-.017.261-.098.32-.18.054-.074.084-.169.105-.244l.003-.012h.13l-.003.019c-.04.197-.087.39-.128.586l-.003.012h-.012zm-.012-.03c.04-.187.085-.37.122-.557h-.071c-.022.075-.052.168-.106.243-.065.09-.193.174-.342.192-.09.01-.18.014-.265.014-.066 0-.131-.003-.194-.007-.112-.013-.22-.06-.22-.208V6.53c0-.192.121-.202.25-.202h.071v-.073c-.17 0-.338.013-.51.013-.178 0-.353-.012-.53-.013v.073h.033c.124 0 .274.022.274.211v1.774c0 .224-.15.247-.274.247h-.033v.073c.299 0 .597-.013.897-.013.3 0 .599.013.898.013zM29.774 6.142c.286 0 .5.22.5.501 0 .28-.214.499-.5.499-.287 0-.5-.218-.5-.499s.213-.501.5-.501zm0 .906c.223 0 .395-.19.395-.405 0-.215-.17-.408-.395-.408s-.397.193-.397.408c0 .215.172.405.397.405zm-.25-.141v-.025c.062-.009.073-.007.073-.045v-.37c0-.052-.005-.07-.07-.067v-.025h.256c.088 0 .169.041.169.132 0 .075-.05.13-.119.151l.082.115c.039.052.082.1.11.117v.017h-.097c-.046 0-.087-.099-.18-.23h-.055v.165c0 .033.012.031.073.04v.025h-.241zm.17-.264h.058c.065 0 .095-.049.095-.127 0-.08-.047-.108-.098-.108h-.056v.235zM.62 1.135C.62.565.324.602.039.595V.432c.247.012.5.012.748.012.267 0 .628-.012 1.098-.012 1.641 0 2.535 1.097 2.535 2.22 0 .627-.367 2.206-2.612 2.206-.323 0-.621-.012-.92-.012-.284 0-.564.006-.849.012v-.164c.38-.039.565-.051.583-.483V1.135zm.622 2.974c0 .488.35.545.66.545 1.37 0 1.82-1.033 1.82-1.978C3.722 1.49 2.96.634 1.737.634c-.26 0-.38.019-.495.026v3.45zM4.642 4.693h.12c.177 0 .304 0 .304-.21V2.765c0-.28-.095-.318-.33-.444V2.22c.298-.09.654-.209.679-.228.044-.025.082-.032.114-.032.031 0 .045.038.045.09v2.434c0 .21.139.21.317.21h.107v.164c-.216 0-.438-.012-.665-.012-.229 0-.457.006-.691.012v-.164zM5.32.983c-.165 0-.31-.152-.31-.317 0-.16.152-.305.31-.305.164 0 .31.134.31.305 0 .171-.14.317-.31.317zM6.6 2.802c0-.234-.07-.297-.367-.418v-.12c.273-.089.532-.171.837-.305.019 0 .037.013.037.064v.412c.362-.26.673-.476 1.098-.476.539 0 .729.393.729.888v1.636c0 .21.14.21.317.21h.114v.164c-.222 0-.444-.012-.672-.012-.228 0-.457.006-.685.012v-.164h.114c.178 0 .304 0 .304-.21V2.84c0-.362-.22-.54-.583-.54-.202 0-.526.166-.736.305v1.877c0 .21.14.21.318.21h.114v.164c-.222 0-.444-.012-.672-.012-.228 0-.457.006-.685.012v-.164h.114c.178 0 .304 0 .304-.21v-1.68zM9.847 3.107c-.013.057-.013.152 0 .368.037.602.425 1.097.932 1.097.349 0 .622-.19.856-.425l.089.09c-.292.386-.653.715-1.173.715-1.008 0-1.211-.976-1.211-1.382 0-1.243.837-1.61 1.28-1.61.514 0 1.066.322 1.072.995 0 .038 0 .076-.006.114l-.058.038h-1.78zm1.123-.203c.158 0 .176-.082.176-.158 0-.324-.196-.584-.551-.584-.387 0-.653.285-.729.742h1.104zM11.838 4.693h.171c.177 0 .304 0 .304-.21V2.7c0-.196-.234-.234-.33-.285V2.32c.463-.197.717-.362.775-.362.037 0 .056.02.056.083v.57h.013c.158-.247.425-.653.812-.653.158 0 .36.108.36.336 0 .172-.12.324-.297.324-.197 0-.197-.152-.419-.152-.108 0-.462.145-.462.526v1.49c0 .21.126.21.304.21h.355v.164c-.35-.006-.614-.012-.888-.012-.26 0-.526.006-.754.012v-.164zM14.279 3.976c.083.418.336.774.799.774.373 0 .513-.229.513-.45 0-.749-1.382-.508-1.382-1.529 0-.355.286-.812.983-.812.202 0 .475.058.722.185l.045.646h-.146c-.063-.4-.285-.628-.691-.628-.254 0-.495.146-.495.419 0 .742 1.471.513 1.471 1.509 0 .418-.336.862-1.09.862-.254 0-.552-.088-.774-.215l-.07-.73.115-.031zM21.823 1.579h-.158c-.12-.742-.647-1.04-1.356-1.04-.73 0-1.789.488-1.789 2.01 0 1.281.914 2.2 1.89 2.2.627 0 1.148-.43 1.274-1.097l.146.038-.146.926c-.266.165-.982.336-1.401.336-1.483 0-2.422-.957-2.422-2.384 0-1.3 1.16-2.233 2.403-2.233.514 0 1.008.166 1.496.337l.063.907zM22.052 4.693h.12c.178 0 .305 0 .305-.21V.95c0-.412-.095-.425-.336-.495V.355c.254-.082.52-.197.653-.273.07-.038.12-.07.139-.07.039 0 .051.039.051.09v4.38c0 .21.14.21.317.21h.107v.165c-.214 0-.436-.012-.665-.012-.228 0-.456.006-.69.012v-.164zM26.123 4.508c0 .115.07.121.177.121.076 0 .171-.006.254-.006v.133c-.273.025-.793.159-.913.196l-.032-.019V4.42c-.38.31-.672.532-1.123.532-.342 0-.697-.221-.697-.754V2.574c0-.164-.025-.323-.38-.355V2.1c.229-.006.735-.045.818-.045.07 0 .07.045.07.184v1.636c0 .19 0 .736.551.736.216 0 .501-.165.767-.386V2.517c0-.126-.304-.196-.532-.26v-.114c.57-.038.926-.089.989-.089.051 0 .051.045.051.115v2.34zM27.385 2.416c.253-.216.595-.457.944-.457.736 0 1.18.641 1.18 1.332 0 .83-.609 1.661-1.516 1.661-.47 0-.716-.152-.881-.221l-.19.145-.133-.07c.056-.373.089-.741.089-1.128V.951c0-.412-.096-.425-.337-.495V.355c.254-.082.52-.197.653-.273.07-.038.12-.07.14-.07.038 0 .05.039.05.09v2.314zm0 1.724c0 .242.228.648.653.648.678 0 .963-.666.963-1.231 0-.685-.52-1.255-1.014-1.255-.235 0-.431.152-.602.298v1.54zM.031 8.544H.08c.124 0 .255-.016.255-.196V6.54c0-.18-.131-.197-.255-.197H.03V6.24c.135 0 .342.013.511.013.173 0 .38-.013.541-.013v.103h-.048c-.124 0-.255.017-.255.197v1.808c0 .18.131.196.255.196h.048v.104c-.165 0-.372-.013-.545-.013-.169 0-.372.013-.507.013v-.104z"
                    transform="translate(-244 -312) translate(91 312) translate(153) translate(5 27)" />
                <path
                    d="M1.084 8.663c-.167 0-.374-.014-.546-.014-.168 0-.371.014-.507.014H.016v-.134H.08c.125-.002.239-.012.24-.181V6.54c-.001-.168-.115-.18-.24-.182H.016v-.134h.015c.136 0 .343.014.511.014.172 0 .378-.014.542-.014h.015v.134h-.064c-.125.002-.24.014-.24.182v1.808c0 .169.115.179.24.181H1.1v.134h-.015zm-.015-.03V8.56h-.034c-.123 0-.27-.021-.27-.212V6.54c0-.19.147-.212.27-.212h.034v-.073c-.16 0-.36.013-.527.013-.164 0-.362-.012-.496-.013v.073H.08c.123 0 .27.022.27.212v1.808c0 .19-.147.212-.27.212H.046v.073c.134 0 .329-.013.492-.013.168 0 .368.013.53.013zM3.454 7.968l.007-.007V6.668c0-.284-.197-.325-.3-.325h-.077V6.24c.163 0 .321.013.483.013.142 0 .284-.013.425-.013v.103H3.94c-.145 0-.307.028-.307.438v1.57c0 .121.003.242.02.349h-.13L1.745 6.72v1.42c0 .301.058.404.324.404h.058v.104c-.148 0-.296-.013-.444-.013-.155 0-.314.013-.47.013v-.104h.049c.238 0 .31-.161.31-.437V6.653c0-.193-.16-.31-.314-.31h-.045V6.24c.132 0 .266.013.397.013.103 0 .204-.013.307-.013l1.536 1.728z"
                    transform="translate(-244 -312) translate(91 312) translate(153) translate(5 27)" />
                <path
                    d="M3.653 8.715l-.142-.005-1.75-1.952v1.383c.003.3.049.385.309.388h.074v.134h-.016c-.149 0-.297-.014-.445-.014-.154 0-.312.014-.469.014h-.015v-.134h.064c.228 0 .293-.147.295-.422V6.654c0-.184-.15-.296-.299-.296H1.2v-.133h.015c.132 0 .267.013.396.013.103 0 .203-.013.32-.008l1.516 1.707V6.668c-.002-.275-.185-.308-.286-.31H3.07v-.133h.015c.163 0 .322.013.483.013.14 0 .282-.013.425-.013h.015v.133H3.94c-.142.004-.288.016-.292.423v1.57c0 .121.003.242.02.346l.003.018h-.018zm-.13-.03h.113c-.015-.104-.018-.219-.018-.334v-1.57c0-.414.174-.453.322-.453h.037v-.073c-.136 0-.273.013-.41.013-.158 0-.311-.012-.467-.013v.073h.06c.106 0 .316.047.316.34L3.47 7.972l-.007.007-.012.01-1.534-1.734c-.102 0-.202.013-.307.013-.127 0-.256-.012-.382-.013v.073h.03c.162 0 .329.124.329.326v1.453c0 .276-.077.452-.325.453h-.034v.073c.15-.001.304-.013.454-.013.145 0 .288.012.43.013V8.56H2.07c-.272 0-.34-.12-.34-.42V6.68l1.792 2.004zm-.049-.663l.046-.042-.046.042zm.014-.017V8l-.012-.01.012.015zM4.508 6.412c-.259 0-.269.062-.32.314h-.104c.014-.097.031-.193.042-.293.013-.097.02-.193.02-.293h.083c.028.103.114.1.208.1h1.78c.093 0 .179-.004.186-.107l.082.013c-.013.094-.027.187-.038.28-.006.093-.006.186-.006.28l-.104.038c-.007-.128-.024-.332-.255-.332h-.566v1.836c0 .266.121.296.286.296h.066v.104c-.135 0-.376-.013-.562-.013-.207 0-.45.013-.584.013v-.104h.066c.19 0 .286-.017.286-.289V6.412h-.566z"
                    transform="translate(-244 -312) translate(91 312) translate(153) translate(5 27)" />
                <path
                    d="M5.868 8.663c-.135 0-.377-.014-.562-.014-.207 0-.448.014-.584.014h-.014v-.134h.08c.19-.004.267-.006.271-.274V6.427h-.55v-.03h.58v1.858c0 .277-.111.305-.3.305h-.052v.073c.136 0 .369-.013.569-.013.18 0 .41.012.547.013V8.56h-.05c-.168 0-.302-.041-.302-.312V6.397h.581c.232 0 .262.197.27.325l.074-.027c0-.09 0-.18.007-.271.01-.089.022-.177.035-.265l-.052-.009c-.016.1-.113.106-.2.105H4.419c-.081 0-.17-.004-.201-.1H4.16c0 .095-.007.188-.02.28-.01.094-.026.185-.04.277h.075c.045-.24.075-.319.332-.315v.03c-.255.005-.25.048-.306.303L4.2 6.74h-.133l.002-.018c.014-.096.031-.192.042-.293.014-.096.02-.191.02-.29v-.015h.11l.002.01c.024.087.088.088.176.09h1.797c.096-.002.166-.003.172-.094l.001-.016.016.003.097.016-.002.015c-.014.092-.028.185-.038.278-.006.092-.006.185-.006.278v.011l-.01.004-.122.044-.001-.02c-.01-.13-.023-.317-.24-.317H5.53v1.82c.003.261.107.28.271.282h.081v.134h-.015zM6.595 8.544h.049c.124 0 .255-.016.255-.196V6.54c0-.18-.131-.197-.255-.197h-.049V6.24c.21 0 .57.013.86.013.29 0 .648-.013.882-.013-.006.148-.003.376.008.527l-.104.028c-.017-.224-.058-.403-.42-.403h-.48v.903h.41c.207 0 .252-.117.273-.303h.103c-.007.135-.01.27-.01.404 0 .131.003.262.01.393l-.103.02c-.02-.206-.031-.34-.27-.34h-.413v.803c0 .224.2.224.42.224.415 0 .597-.028.7-.42l.097.023c-.045.184-.086.366-.117.55-.22 0-.618-.014-.928-.014-.31 0-.72.013-.918.013v-.104z"
                    transform="translate(-244 -312) translate(91 312) translate(153) translate(5 27)" />
                <path
                    d="M8.441 8.663c-.221 0-.618-.014-.928-.014-.31 0-.72.014-.918.014h-.014v-.134h.063c.125-.001.238-.012.24-.181V6.54c-.002-.168-.115-.18-.24-.182H6.58v-.133h.014c.21 0 .57.013.859.013.29 0 .648-.013.883-.013h.016l-.001.015c-.003.052-.003.113-.003.178 0 .12.003.25.01.349v.012l-.011.003-.121.032-.001-.018c-.02-.224-.05-.386-.406-.39h-.464l-.001.874h.396c.199-.002.234-.104.258-.29l.001-.013h.133v.015c-.008.135-.012.27-.012.404 0 .13.004.261.011.393V7.8l-.012.003-.12.024-.001-.017c-.024-.21-.026-.326-.255-.328h-.399v.789c0 .21.182.208.406.21.416-.003.582-.023.686-.41l.004-.015.014.003.11.029-.003.014c-.044.183-.085.365-.116.548l-.003.012H8.44zm-.013-.03c.03-.174.07-.349.112-.522l-.068-.018c-.103.386-.303.42-.71.418-.218 0-.435 0-.436-.24v-.818h.428c.241-.003.266.143.283.34l.074-.016c-.006-.127-.01-.255-.01-.381 0-.13.004-.26.01-.39h-.074c-.02.18-.076.307-.286.304h-.425v-.934h.494c.36-.002.419.183.434.4l.074-.02c-.006-.097-.01-.222-.01-.338 0-.059.002-.114.004-.163-.235 0-.584.013-.868.013-.283 0-.632-.012-.844-.013v.073h.034c.123 0 .27.022.27.212v1.808c0 .19-.147.211-.27.212H6.61v.073c.201 0 .6-.013.903-.013.304 0 .693.013.915.013zM9.024 6.605c0-.251-.138-.262-.245-.262h-.062V6.24c.11 0 .324.014.534.014.207 0 .373-.014.556-.014.434 0 .821.118.821.608 0 .31-.207.5-.48.608l.59.882c.097.146.166.187.335.207v.104c-.114 0-.224-.013-.338-.013-.107 0-.218.013-.324.013-.266-.348-.494-.721-.718-1.118h-.227v.739c0 .266.124.275.282.275h.062v.104c-.197 0-.396-.013-.593-.013-.166 0-.328.013-.5.013v-.104h.062c.128 0 .245-.058.245-.186V6.605zm.442.8h.168c.345 0 .531-.13.531-.538 0-.306-.196-.503-.503-.503-.104 0-.148.01-.196.014v1.028z"
                    transform="translate(-244 -312) translate(91 312) translate(153) translate(5 27)" />
                <path
                    d="M11.073 8.663c-.116 0-.225-.014-.339-.014-.105 0-.215.014-.335.008-.265-.347-.492-.718-.715-1.112H9.48v.723c.004.26.108.258.268.261h.077v.134H9.81c-.197 0-.398-.014-.593-.014-.165 0-.327.014-.5.014h-.015v-.134h.077c.124 0 .229-.054.23-.17V6.604c-.003-.245-.123-.243-.23-.247h-.077v-.134h.015c.111 0 .324.014.534.014.206 0 .372-.014.556-.014.435.001.835.122.836.622 0 .312-.206.507-.472.615l.58.868c.096.143.156.179.324.2l.013.002v.132h-.015zM9.465 7.515h.236l.004.008c.225.396.452.768.706 1.11.105 0 .216-.014.323-.014.11 0 .217.012.324.014v-.076c-.162-.02-.238-.068-.332-.211l-.6-.899.017-.007c.27-.106.47-.29.47-.594 0-.478-.372-.59-.806-.591-.182 0-.348.013-.556.013-.202 0-.407-.012-.52-.013v.073h.048c.107 0 .26.018.26.277v1.753c0 .139-.13.202-.26.202H8.73v.073c.166 0 .324-.014.486-.014.193 0 .387.014.578.014V8.56h-.047c-.158 0-.298-.02-.298-.292v-.753h.015zm0-.095H9.45V6.364l.013-.001c.048-.004.094-.014.199-.014.314 0 .518.205.519.52-.001.411-.199.551-.547.551h-.169zm.17-.03c.34-.002.513-.12.516-.522-.002-.301-.189-.488-.49-.49-.093 0-.137.01-.18.013v1h.153zM13.415 7.968l.007-.007V6.668c0-.284-.197-.325-.3-.325h-.076V6.24c.162 0 .32.013.483.013.142 0 .283-.013.425-.013v.103h-.052c-.145 0-.307.028-.307.438v1.57c0 .121.003.242.02.349h-.13l-1.777-1.98v1.42c0 .301.058.404.324.404h.059v.104c-.149 0-.297-.013-.445-.013-.156 0-.315.013-.47.013v-.104h.048c.239 0 .311-.161.311-.437V6.653c0-.193-.159-.31-.314-.31h-.045V6.24c.131 0 .266.013.397.013.103 0 .203-.013.307-.013l1.535 1.728z"
                    transform="translate(-244 -312) translate(91 312) translate(153) translate(5 27)" />
                <path
                    d="M13.615 8.715l-.142-.005-1.75-1.952v1.383c.003.3.049.385.309.388h.073v.134h-.015c-.15 0-.297-.014-.445-.014-.154 0-.313.014-.469.014h-.015v-.134h.063c.228 0 .293-.147.295-.423V6.653c0-.183-.15-.295-.298-.295h-.06v-.134h.015c.132 0 .267.014.397.014.101 0 .201-.014.317-.009l1.517 1.708v-1.27c-.001-.274-.185-.308-.285-.31h-.091v-.133h.015c.163 0 .322.014.483.014.14 0 .282-.014.424-.014h.015v.134h-.066c-.142.004-.29.016-.293.423v1.57c0 .121.003.24.02.347l.003.017h-.017zm-.13-.03h.113c-.016-.104-.019-.219-.019-.334v-1.57c0-.414.175-.452.323-.453h.036v-.073c-.135 0-.272.013-.41.013-.157 0-.311-.012-.468-.013v.073h.062c.106 0 .315.047.315.34l-.005 1.304-.006.007-.01.011-1.536-1.735c-.103 0-.203.013-.307.013-.128 0-.257-.012-.382-.013v.073h.03c.162.001.329.123.329.325v1.453c0 .277-.078.453-.326.454h-.033v.073c.149 0 .303-.013.454-.013.145 0 .288.012.43.013V8.56h-.043c-.272 0-.34-.12-.34-.42V6.68l1.792 2.004zm-.048-.663l.044-.041-.044.04zm.012-.016V8l-.011-.011.01.016zM14.509 8.155c-.035.117-.077.207-.077.269 0 .104.145.12.259.12h.038v.104c-.138-.007-.279-.013-.418-.013-.124 0-.248.006-.372.013v-.104h.02c.135 0 .25-.079.3-.224l.553-1.583c.045-.128.107-.3.128-.429.11-.037.248-.106.313-.148.011-.003.017-.007.028-.007.01 0 .017 0 .025.01l.03.087.635 1.805c.042.12.083.248.127.352.042.096.115.137.229.137h.02v.104c-.155-.007-.31-.013-.476-.013-.169 0-.342.006-.518.013v-.104h.039c.079 0 .214-.013.214-.1 0-.044-.032-.137-.07-.248l-.134-.4h-.783l-.11.359zm.503-1.529h-.007l-.32.977h.644l-.317-.977z"
                    transform="translate(-244 -312) translate(91 312) translate(153) translate(5 27)" />
                <path
                    d="M16.346 8.663c-.155-.007-.31-.014-.475-.014-.169 0-.34.007-.517.014h-.016V8.53h.053c.08 0 .199-.018.199-.084.001-.04-.03-.134-.068-.244l-.132-.39h-.76l-.108.348c-.035.118-.076.209-.076.265.001.084.13.105.245.105h.053v.135l-.016-.001c-.138-.007-.279-.014-.416-.014-.124 0-.248.007-.372.014h-.016V8.53h.035c.13 0 .236-.073.286-.214l.552-1.583c.046-.128.108-.3.138-.438.108-.037.246-.106.313-.148.01-.003.02-.008.033-.008.009 0 .027.002.038.02.01.029.02.06.031.087l.636 1.805c.04.12.082.248.127.35.04.092.103.129.214.129h.035v.135l-.016-.001zm-.978-.03c.171-.007.339-.014.503-.014.16 0 .31.007.46.013V8.56h-.004c-.118 0-.2-.046-.242-.147-.045-.105-.087-.233-.128-.354l-.635-1.804c-.01-.028-.02-.059-.03-.083-.002-.004-.002-.004-.005-.004h-.006c-.007 0-.011.002-.02.005-.066.043-.205.11-.307.138-.021.13-.083.303-.128.43l-.553 1.584c-.052.15-.173.235-.313.235h-.006v.072c.118-.006.238-.013.358-.013.133 0 .27.007.4.013V8.56h-.021c-.112-.001-.27-.014-.274-.136 0-.069.043-.157.077-.273l.015.004-.015-.005.113-.369h.805l.138.41c.039.11.07.203.07.254-.005.106-.15.113-.229.115h-.023v.072zm-.705-1.016l.33-1.006h.019v.015h-.004.004v-.015h.01l.328 1.006h-.687zm.042-.03h.603l-.3-.924-.303.925zm.318-.914l.033-.011-.033.01zM16.499 6.412c-.259 0-.27.062-.321.314h-.104c.014-.097.031-.193.042-.293.014-.097.02-.193.02-.293h.083c.028.103.115.1.207.1h1.78c.093 0 .18-.004.187-.107l.082.013c-.013.094-.027.187-.037.28-.008.093-.008.186-.008.28l-.103.038c-.006-.128-.024-.332-.255-.332h-.566v1.836c0 .266.121.296.286.296h.066v.104c-.134 0-.376-.013-.562-.013-.207 0-.449.013-.583.013v-.104h.065c.19 0 .287-.017.287-.289V6.412h-.566z"
                    transform="translate(-244 -312) translate(91 312) translate(153) translate(5 27)" />
                <path
                    d="M17.858 8.663c-.135 0-.377-.014-.562-.014-.206 0-.448.014-.583.014h-.016v-.134h.081c.19-.004.267-.006.271-.274V6.427h-.55v-.03h.58v1.858c0 .277-.111.304-.301.305h-.05v.073c.136-.001.368-.013.568-.013.18 0 .41.012.547.013V8.56h-.051c-.166 0-.3-.04-.3-.312V6.397h.58c.232 0 .262.197.269.325l.075-.027c0-.09 0-.18.007-.27.01-.09.022-.178.035-.266l-.052-.009c-.016.1-.113.106-.2.105H16.41c-.082 0-.17-.004-.201-.101h-.057c0 .096-.007.189-.02.28-.01.095-.027.187-.04.277h.074c.046-.24.076-.318.334-.314v.03c-.256.004-.25.048-.307.303l-.002.011h-.133l.002-.017c.014-.097.031-.193.041-.293.015-.097.021-.192.021-.291v-.015h.109l.003.01c.024.087.087.088.176.09h1.797c.096-.002.166-.003.172-.093v-.017l.017.003.098.016-.003.015c-.014.092-.027.185-.038.278-.007.092-.007.185-.007.278v.011l-.01.004-.122.044v-.02c-.01-.13-.023-.317-.24-.317h-.552v1.82c.004.261.107.28.27.282h.082v.134h-.015zM18.603 8.544h.048c.125 0 .255-.016.255-.196V6.54c0-.18-.13-.197-.255-.197h-.048V6.24c.134 0 .341.013.51.013.173 0 .38-.013.542-.013v.103h-.048c-.124 0-.256.017-.256.197v1.808c0 .18.132.196.256.196h.048v.104c-.166 0-.373-.013-.545-.013-.17 0-.373.013-.507.013v-.104z"
                    transform="translate(-244 -312) translate(91 312) translate(153) translate(5 27)" />
                <path
                    d="M19.655 8.663c-.167 0-.373-.014-.545-.014-.169 0-.373.014-.507.014h-.015v-.134h.063c.125-.001.239-.012.24-.181V6.54c-.001-.168-.115-.18-.24-.182h-.063v-.133h.015c.134 0 .342.013.51.013.172 0 .379-.013.542-.013h.015v.133h-.063c-.126.002-.24.014-.241.182v1.808c.002.169.115.18.24.181h.064v.134h-.015zm-.015-.03V8.56h-.033c-.124 0-.27-.022-.27-.212V6.54c0-.19.146-.212.27-.212h.033v-.073c-.16 0-.359.013-.527.013-.164 0-.361-.012-.495-.013v.073h.033c.123 0 .27.022.27.212v1.808c0 .19-.147.212-.27.212h-.033v.073c.133-.002.328-.013.492-.013.167 0 .367.012.53.013zM21.03 6.188c.736 0 1.322.456 1.322 1.19 0 .795-.569 1.322-1.303 1.322-.732 0-1.29-.497-1.29-1.239 0-.717.554-1.273 1.272-1.273zm.053 2.36c.67 0 .786-.59.786-1.093 0-.505-.272-1.115-.845-1.115-.604 0-.783.538-.783 1 0 .618.283 1.208.842 1.208z"
                    transform="translate(-244 -312) translate(91 312) translate(153) translate(5 27)" />
                <path
                    d="M19.743 7.461c.001-.726.563-1.287 1.288-1.288v.03c-.71 0-1.258.548-1.259 1.258.002.734.552 1.223 1.277 1.223.727 0 1.288-.52 1.29-1.306-.002-.725-.579-1.174-1.308-1.175v-.03c.74 0 1.335.461 1.336 1.205 0 .802-.577 1.335-1.318 1.337-.738-.002-1.305-.504-1.306-1.254zm.483-.121c.001-.464.182-1.016.798-1.016.586.002.86.624.86 1.13 0 .504-.12 1.108-.8 1.108V8.533c.655 0 .769-.575.77-1.078 0-.5-.269-1.1-.83-1.1-.592 0-.767.525-.768.985 0 .615.28 1.192.827 1.193V8.562c-.573 0-.856-.6-.857-1.222zM24.677 7.968l.007-.007V6.668c0-.284-.197-.325-.3-.325h-.075V6.24c.162 0 .32.013.482.013.142 0 .283-.013.425-.013v.103h-.052c-.145 0-.307.028-.307.438v1.57c0 .121.003.242.02.349h-.13L22.97 6.72v1.42c0 .301.058.404.323.404h.06v.104c-.149 0-.297-.013-.445-.013-.156 0-.315.013-.47.013v-.104h.049c.238 0 .31-.161.31-.437V6.653c0-.193-.158-.31-.314-.31h-.045V6.24c.131 0 .266.013.397.013.103 0 .203-.013.307-.013l1.535 1.728z"
                    transform="translate(-244 -312) translate(91 312) translate(153) translate(5 27)" />
                <path
                    d="M24.878 8.715l-.143-.005-1.75-1.952v1.383c.003.3.049.385.308.388h.075v.134h-.015c-.15 0-.298-.014-.445-.014-.155 0-.314.014-.47.014h-.015v-.134h.064c.227 0 .292-.147.295-.422V6.653c0-.183-.15-.295-.3-.295h-.059v-.133h.015c.132 0 .266.013.397.013.102 0 .202-.013.318-.008l1.516 1.707V6.668c0-.275-.185-.308-.286-.31h-.09v-.133h.015c.163 0 .322.013.482.013.142 0 .283-.013.426-.013h.015v.133h-.067c-.142.004-.29.017-.292.423v1.57c0 .121.003.241.02.347l.002.017h-.016zm-.131-.03h.113c-.015-.104-.018-.219-.018-.334v-1.57c0-.414.174-.452.322-.453h.037v-.073c-.136 0-.273.013-.41.013-.157 0-.312-.012-.468-.013v.073h.06c.107 0 .316.048.316.34l-.004 1.304-.007.007-.01.011-1.536-1.735c-.102 0-.203.013-.307.013-.127 0-.257-.012-.382-.013v.073h.03c.162.001.329.123.329.325v1.454c0 .276-.077.452-.325.453h-.034v.073c.15 0 .303-.013.455-.013.143 0 .286.012.43.013V8.56h-.045c-.27 0-.338-.12-.338-.42V6.68l1.792 2.004zm-.05-.663l.047-.041-.046.04zm.015-.016V8L24.7 7.99l.012.016zM25.77 8.155c-.034.117-.075.207-.075.269 0 .104.145.12.258.12h.038v.104c-.138-.007-.28-.013-.417-.013-.125 0-.249.006-.372.013v-.104h.02c.135 0 .249-.079.3-.224l.552-1.583c.045-.128.107-.3.128-.429.11-.037.248-.106.314-.148.01-.003.017-.007.027-.007.01 0 .017 0 .024.01.01.028.021.06.032.087l.634 1.805c.041.12.083.248.128.352.041.096.114.137.228.137h.02v.104c-.155-.007-.31-.013-.476-.013-.169 0-.341.006-.517.013v-.104h.038c.079 0 .214-.013.214-.1 0-.044-.031-.137-.07-.248l-.134-.4h-.783l-.11.359zm.504-1.529h-.006l-.322.977h.646l-.318-.977z"
                    transform="translate(-244 -312) translate(91 312) translate(153) translate(5 27)" />
                <path
                    d="M27.608 8.663c-.155-.006-.31-.014-.475-.014-.168 0-.34.008-.517.014h-.015V8.53h.052c.08 0 .2-.018.2-.084 0-.04-.03-.134-.07-.244l-.13-.39h-.762l-.107.348c-.034.118-.075.209-.074.265 0 .084.129.105.243.105h.053v.135l-.016-.001c-.138-.006-.279-.014-.416-.014-.124 0-.248.008-.372.014h-.015V8.53h.035c.128 0 .236-.074.286-.214l.552-1.583c.044-.128.106-.3.137-.437.108-.038.247-.107.314-.15.009-.002.018-.006.032-.006.01-.001.027.001.038.02.01.027.02.058.032.086l.634 1.805c.042.12.083.248.128.351.04.091.103.127.213.128h.036v.135l-.016-.001zm-.978-.03c.171-.007.339-.014.503-.014.16 0 .311.007.461.013V8.56h-.006c-.117 0-.198-.046-.241-.147-.046-.105-.087-.233-.128-.353l-.635-1.805-.029-.083c-.003-.004-.003-.004-.005-.004h-.007c-.007 0-.01.003-.02.005-.066.042-.205.111-.307.138-.021.13-.084.302-.128.43l-.553 1.584c-.052.15-.173.235-.314.235h-.005v.072c.119-.006.238-.013.358-.013.133 0 .27.007.402.013V8.56h-.023c-.112-.001-.27-.014-.274-.136 0-.069.044-.157.077-.274l.014.005-.014-.005.114-.369h.804l.138.41c.039.111.07.203.07.253-.005.106-.15.114-.229.116h-.023v.073zm-.704-1.016l.33-1.006h.018v.015h-.003.003v-.015h.011l.326 1.006h-.685zm.041-.03h.603l-.3-.924-.303.925zm.32-.914l.029-.011-.029.01zM28.479 8.31c0 .138.096.18.206.193.142.01.297.01.456-.007.145-.017.27-.1.33-.186.056-.076.087-.173.108-.249h.1c-.038.197-.086.39-.128.587-.303 0-.607-.013-.91-.013-.304 0-.607.013-.911.013v-.104h.047c.125 0 .26-.016.26-.23V6.54c0-.18-.135-.197-.26-.197h-.047V6.24c.182 0 .362.013.544.013.177 0 .35-.013.525-.013v.103h-.087c-.13 0-.233.004-.233.186V8.31z"
                    transform="translate(-244 -312) translate(91 312) translate(153) translate(5 27)" />
                <path
                    d="M29.551 8.663c-.304 0-.608-.014-.91-.014-.304 0-.608.014-.912.014h-.014v-.134h.062c.125-.002.244-.011.245-.216V6.54c-.001-.168-.119-.18-.245-.182h-.062v-.133h.014c.184 0 .363.013.546.013.175 0 .347-.013.524-.013h.014v.133H28.713c-.134.004-.217-.002-.22.171V8.31c.001.129.085.163.193.178.06.005.125.007.191.007.085 0 .173-.004.262-.013.14-.017.261-.098.32-.18.054-.074.084-.169.105-.244l.003-.012h.13l-.003.019c-.04.197-.087.39-.128.586l-.003.012h-.012zm-.012-.03c.04-.187.085-.37.122-.557h-.071c-.022.075-.052.168-.106.243-.065.09-.193.174-.342.192-.09.01-.18.014-.265.014-.066 0-.131-.003-.194-.007-.112-.013-.22-.06-.22-.208V6.53c0-.192.121-.202.25-.202h.071v-.073c-.17 0-.338.013-.51.013-.178 0-.353-.012-.53-.013v.073h.033c.124 0 .274.022.274.211v1.774c0 .224-.15.247-.274.247h-.033v.073c.299 0 .597-.013.897-.013.3 0 .599.013.898.013zM29.774 6.142c.286 0 .5.22.5.501 0 .28-.214.499-.5.499-.287 0-.5-.218-.5-.499s.213-.501.5-.501zm0 .906c.223 0 .395-.19.395-.405 0-.215-.17-.408-.395-.408s-.397.193-.397.408c0 .215.172.405.397.405zm-.25-.141v-.025c.062-.009.073-.007.073-.045v-.37c0-.052-.005-.07-.07-.067v-.025h.256c.088 0 .169.041.169.132 0 .075-.05.13-.119.151l.082.115c.039.052.082.1.11.117v.017h-.097c-.046 0-.087-.099-.18-.23h-.055v.165c0 .033.012.031.073.04v.025h-.241zm.17-.264h.058c.065 0 .095-.049.095-.127 0-.08-.047-.108-.098-.108h-.056v.235z"
                    transform="translate(-244 -312) translate(91 312) translate(153) translate(5 27)" />
            </g>
            <g fill-rule="nonzero">
                <path fill="#0079BE"
                    d="M14.042 18.99c5.19.024 9.927-4.234 9.927-9.413 0-5.664-4.737-9.579-9.927-9.577H9.575C4.323-.002 0 3.914 0 9.577c0 5.18 4.323 9.437 9.575 9.412h4.467z"
                    transform="translate(-244 -312) translate(91 312) translate(153) translate(8 4)" />
                <path fill="#FFF"
                    d="M9.596.785C4.797.786.908 4.676.906 9.478c.002 4.8 3.891 8.69 8.69 8.691 4.8-.001 8.69-3.891 8.691-8.691 0-4.802-3.89-8.692-8.69-8.693zM4.088 9.478c.005-2.347 1.47-4.347 3.536-5.142v10.282c-2.066-.794-3.531-2.794-3.536-5.14zm7.48 5.142V4.335c2.066.794 3.534 2.795 3.538 5.143-.004 2.348-1.472 4.348-3.538 5.142z"
                    transform="translate(-244 -312) translate(91 312) translate(153) translate(8 4)" />
            </g>
        </g>
        <g id="mc" fill="none" fill-rule="evenodd">
            <g fill-rule="nonzero">
                <path fill="#FF5F00" d="M18.137 15L10.137 15 10.137 2 18.137 2z"
                    transform="translate(-91 -312) translate(91 312) translate(6 9)" />
                <path fill="#EB001B"
                    d="M10.832 8.5c0-2.711 1.292-5.126 3.305-6.683C12.613.637 10.729-.003 8.789 0 4.011 0 .137 3.806.137 8.5S4.01 17 8.789 17c1.94.003 3.824-.638 5.348-1.817-2.013-1.556-3.305-3.972-3.305-6.683"
                    transform="translate(-91 -312) translate(91 312) translate(6 9)" />
                <path fill="#F79E1B"
                    d="M28.137 8.5c0 4.694-3.874 8.5-8.652 8.5-1.94.003-3.825-.638-5.348-1.817 2.013-1.557 3.305-3.972 3.305-6.683s-1.292-5.126-3.305-6.683C15.66.637 17.545-.003 19.485 0c4.778 0 8.652 3.806 8.652 8.5"
                    transform="translate(-91 -312) translate(91 312) translate(6 9)" />
            </g>
            <path fill="#000" fill-rule="nonzero"
                d="M34.7 30.645v.107h.059c.01 0 .021-.005.03-.014.008-.01.012-.025.012-.04 0-.017-.004-.032-.012-.04-.009-.01-.02-.015-.03-.014H34.7zm.06-.048c.024-.002.048.006.068.022.017.014.026.036.025.059 0 .02-.007.038-.02.052-.015.014-.035.023-.055.025l.077.095h-.06l-.07-.094H34.7v.094h-.05v-.253h.109zm-.016.34c.026 0 .052-.005.076-.016.023-.01.044-.026.061-.045.018-.02.032-.042.042-.067.02-.053.02-.113 0-.166-.01-.025-.024-.048-.042-.067-.017-.02-.038-.035-.061-.045-.025-.011-.05-.016-.076-.016-.027 0-.053.005-.078.016-.023.01-.045.026-.063.045-.056.062-.072.154-.041.234.01.025.023.048.041.067.018.02.04.035.063.046.025.01.051.017.078.016m0-.485c.068 0 .133.029.181.08.024.025.042.055.055.087.027.068.027.144 0 .212-.013.032-.032.062-.055.087-.023.024-.051.044-.081.058-.032.015-.066.022-.1.022-.035 0-.07-.007-.102-.022-.03-.014-.058-.033-.082-.058-.023-.026-.041-.057-.054-.09-.026-.068-.026-.144 0-.212.013-.032.032-.062.055-.087.023-.025.051-.045.082-.058.032-.015.067-.022.101-.022m-23.665-.975c0-.482.292-.879.77-.879.455 0 .763.38.763.88s-.308.879-.764.879c-.477 0-.77-.397-.77-.88m2.054 0v-1.373h-.551v.334c-.175-.247-.44-.402-.802-.402-.71 0-1.268.604-1.268 1.442s.557 1.442 1.268 1.442c.361 0 .627-.155.802-.402v.333h.55v-1.374h.001zm18.638 0c0-.482.292-.879.77-.879.456 0 .764.38.764.88s-.308.879-.764.879c-.478 0-.77-.397-.77-.88m2.054 0V27h-.552v1.437c-.175-.247-.44-.402-.8-.402-.712 0-1.27.604-1.27 1.442s.558 1.442 1.27 1.442c.36 0 .625-.155.8-.402v.333h.552v-1.374zm-13.846-.907c.356 0 .584.241.642.666h-1.316c.06-.397.281-.666.674-.666m.011-.536c-.743 0-1.263.586-1.263 1.443 0 .873.54 1.442 1.3 1.442.382 0 .732-.104 1.04-.385l-.27-.443c-.213.184-.484.288-.738.288-.356 0-.68-.179-.759-.673h1.884c.005-.074.01-.15.01-.23-.005-.856-.494-1.442-1.204-1.442m6.66 1.442c0-.482.292-.879.77-.879.456 0 .763.38.763.88s-.307.879-.764.879c-.477 0-.77-.397-.77-.88m2.054 0v-1.372h-.55v.334c-.176-.247-.441-.402-.802-.402-.711 0-1.269.604-1.269 1.442s.558 1.442 1.269 1.442c.36 0 .626-.155.801-.402v.333h.552v-1.374zm-5.168 0c0 .833.536 1.443 1.353 1.443.382 0 .637-.093.912-.328l-.265-.483c-.207.161-.425.248-.665.248-.44-.006-.764-.35-.764-.88 0-.528.324-.873.764-.879.24 0 .457.086.665.247l.265-.482c-.276-.236-.53-.328-.912-.328-.817 0-1.353.61-1.353 1.442m7.11-1.442c-.317 0-.525.161-.668.403v-.333h-.547v2.746h.553v-1.54c0-.454.18-.707.54-.707.119-.001.236.022.345.07l.17-.563c-.122-.052-.28-.075-.393-.075m-14.785.287c-.265-.19-.63-.287-1.034-.287-.643 0-1.056.333-1.056.879 0 .448.308.724.875.81l.26.04c.303.046.446.132.446.287 0 .213-.201.334-.579.334-.382 0-.657-.132-.843-.287l-.26.465c.303.242.685.357 1.099.357.732 0 1.157-.374 1.157-.897 0-.482-.334-.735-.886-.821l-.26-.04c-.239-.034-.43-.086-.43-.27 0-.201.18-.322.483-.322.323 0 .637.132.79.235l.24-.482-.002-.001zm7.118-.287c-.319 0-.526.161-.668.403v-.334h-.547v2.746h.551v-1.54c0-.454.18-.707.541-.707.118-.001.236.022.345.07l.17-.563c-.122-.052-.28-.075-.393-.075m-4.706.069h-.902v-.833h-.558v.833h-.514v.545h.514v1.253c0 .637.228 1.017.881 1.017.24 0 .515-.08.69-.212l-.16-.512c-.164.103-.344.155-.488.155-.275 0-.365-.184-.365-.46v-1.24h.902v-.546zm-8.247 2.746v-1.723c0-.65-.382-1.086-.998-1.092-.324-.005-.658.104-.892.489-.175-.305-.45-.489-.838-.489-.27 0-.536.087-.743.408v-.34H6v2.747h.556v-1.523c0-.477.245-.73.622-.73.366 0 .551.259.551.724v1.528h.558v-1.522c0-.477.254-.73.62-.73.377 0 .557.258.557.724v1.528l.559.001z"
                transform="translate(-91 -312) translate(91 312)" />
        </g>
        <g id="vs" fill="none" fill-rule="evenodd">
            <g fill="#323CC6" fill-rule="nonzero">
                <path
                    d="M4.831 9.806L2.841 2.276 0 .176 5.02.176 6.314 6.748 8.75.176 11.389.176 7.467 9.806 4.831 9.806zM13.33 9.813L10.84 9.813 12.398.168 14.888.168zM17.666 9.957c-1.118-.012-2.194-.246-2.775-.514l.348-2.16.321.154c.82.36 1.349.506 2.346.506.716 0 1.484-.296 1.49-.942.005-.422-.321-.724-1.292-1.197-.944-.46-2.197-1.234-2.182-2.62C15.937 1.309 17.671 0 20.133 0c.964 0 1.74.211 2.232.405l-.337 2.09-.224-.11c-.46-.195-1.049-.383-1.864-.37-.976 0-1.426.429-1.427.83-.006.453.528.749 1.399 1.196 1.437.689 2.1 1.522 2.092 2.621-.02 2.002-1.72 3.295-4.338 3.295zM28.657.178l2.015 9.64h-2.311l-.138-.662-.054-.26c-.045-.214-.087-.412-.112-.524h-.317l-.538-.001-1.105-.002h-.424l-.192-.001h-.327l-.126-.001h-.16c-.097.261-.524 1.45-.524 1.45h-2.617l3.7-8.84c.26-.628.708-.799 1.305-.799h1.925zm-1.75 2.6l-.07.195-.075.21c-.088.243-.171.468-.184.51-.002.005-.787 2.146-.994 2.7h2.068l-.577-2.783-.168-.833z"
                    transform="translate(-142 -312) translate(91 312) translate(51) translate(5 15)" />
            </g>
        </g>
    </defs>
</svg>